<?xml version="1.0" encoding="UTF-8" standalone="no"?>
<!-- Created with Inkscape (http://www.inkscape.org/) -->

<svg
   xmlns:dc="http://purl.org/dc/elements/1.1/"
   xmlns:cc="http://creativecommons.org/ns#"
   xmlns:rdf="http://www.w3.org/1999/02/22-rdf-syntax-ns#"
   xmlns:svg="http://www.w3.org/2000/svg"
   xmlns="http://www.w3.org/2000/svg"
   xmlns:sodipodi="http://sodipodi.sourceforge.net/DTD/sodipodi-0.dtd"
   xmlns:inkscape="http://www.inkscape.org/namespaces/inkscape"
   width="128"
   height="128"
   viewBox="0 0 128 128"
   id="svg2"
   version="1.1"
   inkscape:version="0.91 r13725"
   sodipodi:docname="drawing.html"
   inkscape:export-filename="D:\workspace\yuulye\yuulye.github.io\img\drawing.png"
   inkscape:export-xdpi="90"
   inkscape:export-ydpi="90">
  <defs
     id="defs4" />
  <sodipodi:namedview
     id="base"
     pagecolor="#ffffff"
     bordercolor="#666666"
     borderopacity="1.0"
     inkscape:pageopacity="0.0"
     inkscape:pageshadow="2"
     inkscape:zoom="2.8"
     inkscape:cx="45.811465"
     inkscape:cy="63.76832"
     inkscape:document-units="px"
     inkscape:current-layer="layer1"
     showgrid="false"
     units="px"
     inkscape:window-width="1366"
     inkscape:window-height="715"
     inkscape:window-x="-8"
     inkscape:window-y="-8"
     inkscape:window-maximized="1" />
  <metadata
     id="metadata7">
    <rdf:RDF>
      <cc:Work
         rdf:about="">
        <dc:format>image/svg+xml</dc:format>
        <dc:type
           rdf:resource="http://purl.org/dc/dcmitype/StillImage" />
        <dc:title />
      </cc:Work>
    </rdf:RDF>
  </metadata>
  <g
     inkscape:label="Layer 1"
     inkscape:groupmode="layer"
     id="layer1"
     transform="translate(0,-924.36216)">
    <circle
       style="fill:#333333;fill-opacity:1;stroke:none;stroke-width:9;stroke-miterlimit:4;stroke-dasharray:none;stroke-opacity:1"
       id="path4188"
       cx="64"
       cy="988.36218"
       r="64" />
    <g
       id="g4154"
       transform="matrix(1.2786016,0,0,1.2786016,-157.85048,-277.91963)"
       style="fill:#ff0000">
      <path
         inkscape:connector-curvature="0"
         style="fill:#ff0000;fill-opacity:1;stroke:none;stroke-width:9;stroke-miterlimit:4;stroke-dasharray:none;stroke-opacity:1"
         d="M 19.140625,958.34849 A 54,54 0 0 0 13.960938,968.159 64,64 0 0 0 64,992.3622 64,64 0 0 0 114.07031,968.2157 54,54 0 0 0 108.85938,958.37583 54,54 0 0 1 64,982.3622 54,54 0 0 1 19.140625,958.34849 Z"
         id="path4199" />
      <path
         transform="matrix(0.69305977,0,0,1.0214802,19.644175,-17.359071)"
         inkscape:transform-center-y="8.0061649"
         d="m 64.000001,1017.8757 -27.151081,-47.02709 54.302159,0 z"
         inkscape:randomized="0"
         inkscape:rounded="0"
         inkscape:flatsided="true"
         sodipodi:arg2="2.6179939"
         sodipodi:arg1="1.5707963"
         sodipodi:r2="15.675683"
         sodipodi:r1="31.351366"
         sodipodi:cy="986.52429"
         sodipodi:cx="64"
         sodipodi:sides="3"
         id="path4208"
         style="fill:#ff0000;fill-opacity:1;stroke:none;stroke-width:9;stroke-miterlimit:4;stroke-dasharray:none;stroke-opacity:1"
         sodipodi:type="star" />
    </g>
    <path
       transform="matrix(0.80999399,0,0,1.1938261,152.14212,-189.38639)"
       inkscape:transform-center-y="8.0061649"
       d="m 64.000001,1017.8757 -27.151081,-47.02709 54.302159,0 z"
       inkscape:randomized="0"
       inkscape:rounded="0"
       inkscape:flatsided="true"
       sodipodi:arg2="2.6179939"
       sodipodi:arg1="1.5707963"
       sodipodi:r2="15.675683"
       sodipodi:r1="31.351366"
       sodipodi:cy="986.52429"
       sodipodi:cx="64"
       sodipodi:sides="3"
       id="path4148"
       style="fill:#ff0000;fill-opacity:1;stroke:none;stroke-width:9;stroke-miterlimit:4;stroke-dasharray:none;stroke-opacity:1"
       sodipodi:type="star" />
    <path
       inkscape:connector-curvature="0"
       style="fill:#deaa87;fill-opacity:1;stroke:none;stroke-width:9;stroke-miterlimit:4;stroke-dasharray:none;stroke-opacity:1"
       d="M 64,928.36214 A 60,60 0 0 0 15.105347,953.66 59.166536,59.166536 0 0 0 63.983521,979.59322 59.166536,59.166536 0 0 0 112.86536,953.67464 60,60 0 0 0 64,928.36214 Z"
       id="path4161" />
    <path
       inkscape:connector-curvature="0"
       style="fill:#cccccc;fill-opacity:1;stroke:none;stroke-width:9;stroke-miterlimit:4;stroke-dasharray:none;stroke-opacity:1"
       d="M 9.1873779,964.06587 A 60,60 0 0 0 4,988.36214 60,60 0 0 0 64,1048.3622 60,60 0 0 0 124,988.36214 60,60 0 0 0 118.80896,964.13363 70.123302,70.123302 0 0 1 63.983521,990.55025 70.123302,70.123302 0 0 1 9.1873779,964.06587 Z"
       id="path4136" />
    <g
       style="fill:#000000;stroke:none;stroke-opacity:1"
       transform="matrix(1.0956766,0,0,1.0956766,-6.1404209,-96.7572)"
       id="g4163">
      <path
         id="path4165"
         d="M 19.140625,958.34849 A 54,54 0 0 0 13.960938,968.159 64,64 0 0 0 64,992.3622 64,64 0 0 0 114.07031,968.2157 54,54 0 0 0 108.85938,958.37583 54,54 0 0 1 64,982.3622 54,54 0 0 1 19.140625,958.34849 Z"
         style="fill:#000000;fill-opacity:1;stroke:none;stroke-width:9;stroke-miterlimit:4;stroke-dasharray:none;stroke-opacity:1"
         inkscape:connector-curvature="0" />
      <path
         sodipodi:type="star"
         style="fill:#000000;fill-opacity:1;stroke:none;stroke-width:9;stroke-miterlimit:4;stroke-dasharray:none;stroke-opacity:1"
         id="path4167"
         sodipodi:sides="3"
         sodipodi:cx="64"
         sodipodi:cy="986.52429"
         sodipodi:r1="31.351366"
         sodipodi:r2="15.675683"
         sodipodi:arg1="1.5707963"
         sodipodi:arg2="2.6179939"
         inkscape:flatsided="true"
         inkscape:rounded="0"
         inkscape:randomized="0"
         d="m 64.000001,1017.8757 -27.151081,-47.02709 54.302159,0 z"
         inkscape:transform-center-y="8.0061649"
         transform="matrix(0.69305977,0,0,1.0214802,19.644175,-17.359071)" />
    </g>
    <g
       id="g4176"
       transform="translate(140,-120)">
      <path
         style="fill:#ff5555;fill-opacity:1;stroke:none;stroke-width:9;stroke-miterlimit:4;stroke-dasharray:none;stroke-opacity:1"
         d="m 64,924.36216 a 64,64 0 0 0 -52.154297,26.98438 63.110972,63.110972 0 0 0 52.136719,27.6621 63.110972,63.110972 0 0 0 52.140628,-27.64648 64,64 0 0 0 -52.12305,-27 z"
         id="path4178"
         inkscape:connector-curvature="0" />
      <path
         style="fill:#f2f2f2;fill-opacity:1;stroke:none;stroke-width:9;stroke-miterlimit:4;stroke-dasharray:none;stroke-opacity:1"
         d="M 5.5332031,962.44614 A 64,64 0 0 0 0,988.36216 a 64,64 0 0 0 64,64.00004 64,64 0 0 0 64,-64.00004 64,64 0 0 0 -5.53711,-25.84375 74.798189,74.798189 0 0 1 -58.480468,28.17773 74.798189,74.798189 0 0 1 -58.4492189,-28.25 z"
         id="path4180"
         inkscape:connector-curvature="0" />
      <g
         style="fill:#333333"
         transform="matrix(1.1687217,0,0,1.1687217,-10.816449,-169.09847)"
         id="g4182">
        <path
           id="path4184"
           d="M 19.140625,958.34849 A 54,54 0 0 0 13.960938,968.159 64,64 0 0 0 64,992.3622 64,64 0 0 0 114.07031,968.2157 54,54 0 0 0 108.85938,958.37583 54,54 0 0 1 64,982.3622 54,54 0 0 1 19.140625,958.34849 Z"
           style="fill:#333333;fill-opacity:1;stroke:none;stroke-width:9;stroke-miterlimit:4;stroke-dasharray:none;stroke-opacity:1"
           inkscape:connector-curvature="0" />
        <path
           sodipodi:type="star"
           style="fill:#333333;fill-opacity:1;stroke:none;stroke-width:9;stroke-miterlimit:4;stroke-dasharray:none;stroke-opacity:1"
           id="path4186"
           sodipodi:sides="3"
           sodipodi:cx="64"
           sodipodi:cy="986.52429"
           sodipodi:r1="31.351366"
           sodipodi:r2="15.675683"
           sodipodi:arg1="1.5707963"
           sodipodi:arg2="2.6179939"
           inkscape:flatsided="true"
           inkscape:rounded="0"
           inkscape:randomized="0"
           d="m 64.000001,1017.8757 -27.151081,-47.02709 54.302159,0 z"
           inkscape:transform-center-y="8.0061649"
           transform="matrix(0.69305977,0,0,1.0214802,19.644175,-17.359071)" />
      </g>
    </g>
  </g>
</svg>
